<?xml version="1.0" encoding="utf-8"?>
<!-- Generator: Adobe Illustrator 25.2.1, SVG Export Plug-In . SVG Version: 6.00 Build 0)  -->
<svg version="1.1" id="Camada_1" xmlns="http://www.w3.org/2000/svg" xmlns:xlink="http://www.w3.org/1999/xlink" x="0px" y="0px"
	 viewBox="0 0 150 150" style="enable-background:new 0 0 150 150;" xml:space="preserve">
<style type="text/css">
	.st0{fill:#FF6700;}
	.st1{fill:#FFFFFF;}
</style>
<path class="st0" d="M122.9,147.8h-96c-13.8,0-25.1-11.2-25.1-25.1v-96c0-13.8,11.2-25.1,25.1-25.1h96c13.8,0,25.1,11.2,25.1,25.1
	v96C148,136.5,136.8,147.8,122.9,147.8z"/>
<g>
	<g>
		<polygon class="st1" points="113.3,57 107.9,57 107.1,57.1 106.6,57.6 81.2,83 62.6,64.5 62.6,58.8 62.6,57 60.8,57 57,57 
			55.2,57 55.2,57.1 55.1,57.1 54.4,57 48.9,57 44.5,56.9 47.6,60 55.2,67.6 55.2,77.5 35.3,57.7 32.2,54.6 32.2,58.9 32.2,58.9 
			32.2,91.2 32.2,93 34,93 37.8,93 39.6,93 39.6,91.2 39.6,72.5 59.5,92.3 59.5,92.3 62.6,95.4 62.6,91.1 62.6,75 79.9,92.3 
			81.2,93.6 81.2,93.6 81.2,93.6 82.4,92.3 114.6,60 117.8,56.9 		"/>
		<path class="st1" d="M81.2,69c6.3,0,11.4-5.1,11.4-11.4c0-0.2,0-0.5,0-0.7H69.7c0,0.2,0,0.5,0,0.7C69.7,63.9,74.8,69,81.2,69z"/>
	</g>
</g>
</svg>
