<?xml version="1.0" encoding="utf-8"?>
<!-- Generator: Adobe Illustrator 25.2.1, SVG Export Plug-In . SVG Version: 6.00 Build 0)  -->
<svg version="1.1" id="Camada_1" xmlns="http://www.w3.org/2000/svg" xmlns:xlink="http://www.w3.org/1999/xlink" x="0px" y="0px"
	 viewBox="0 0 150 73.6" style="enable-background:new 0 0 150 73.6;" xml:space="preserve">
<style type="text/css">
	.st0{fill:#FF6700;}
</style>
<g>
	<polygon class="st0" points="141,6 131.6,6.1 130.3,6.2 129.4,7.1 85.6,50.9 53.6,19 53.6,9.2 53.6,6.1 50.5,6.1 44,6.1 40.9,6.1 
		40.9,6.2 40.8,6.2 39.6,6.1 30.1,6 22.5,5.9 27.9,11.3 40.9,24.3 40.9,41.4 6.6,7.2 1.4,1.9 1.4,9.4 1.4,9.4 1.4,64.9 1.4,68 
		4.5,68 11,68 14.1,68 14.1,64.9 14.1,32.7 48.3,66.9 48.3,66.9 53.6,72.2 53.6,64.7 53.6,37 83.4,66.8 85.6,69 85.6,69 85.6,69 
		87.8,66.8 143.2,11.3 148.6,5.9 	"/>
	<path class="st0" d="M85.6,26.8c10.9,0,19.7-8.8,19.7-19.7c0-0.4,0-0.8,0-1.2H65.9c0,0.4,0,0.8,0,1.2C65.9,18,74.7,26.8,85.6,26.8z
		"/>
</g>
</svg>
