<?xml version="1.0" encoding="utf-8"?>
<!-- Generator: Adobe Illustrator 25.2.1, SVG Export Plug-In . SVG Version: 6.00 Build 0)  -->
<svg version="1.1" id="Camada_1" xmlns="http://www.w3.org/2000/svg" xmlns:xlink="http://www.w3.org/1999/xlink" x="0px" y="0px"
	 viewBox="0 0 250 86.8" style="enable-background:new 0 0 250 86.8;" xml:space="preserve">
<style type="text/css">
	.st0{fill:#DCDEE9;}
</style>
<g id="pick-up" transform="translate(0 0)">
	<g id="Grupo_18" transform="translate(0 0)">
		<path id="Caminho_26" class="st0" d="M204.3,45.8c10.9,0,19.7,8.8,19.7,19.6c0,0,0,0,0,0c0,0.8-0.1,1.7-0.2,2.5
			c-1.4,10.8-11.2,18.4-22,17c-9.2-1.2-16.3-8.6-17.1-17.8c0-0.6-0.1-1.1-0.1-1.7C184.7,54.6,193.5,45.8,204.3,45.8
			C204.3,45.8,204.3,45.8,204.3,45.8z M214.2,58l-4,4c0.3,0.5,0.6,1.1,0.7,1.7h5.6C216.2,61.7,215.4,59.7,214.2,58z M216.5,67.2
			h-5.7c-0.2,0.6-0.4,1.2-0.7,1.7l4,4C215.4,71.2,216.3,69.2,216.5,67.2L216.5,67.2z M206,77.6c2.1-0.3,4-1.1,5.7-2.4l-4-4
			c-0.5,0.3-1.1,0.5-1.7,0.7L206,77.6z M206,58.9c0.6,0.2,1.2,0.4,1.7,0.7l4-4c-1.7-1.3-3.7-2.1-5.7-2.4L206,58.9L206,58.9z
			 M202.6,53.2c-2.1,0.3-4.1,1.1-5.7,2.4l4,4c0.5-0.3,1.1-0.6,1.7-0.7L202.6,53.2L202.6,53.2z M202.6,77.6V72
			c-0.6-0.1-1.2-0.4-1.7-0.7l-4,4C198.6,76.5,200.6,77.3,202.6,77.6z M194.5,72.9l4-4c-0.3-0.5-0.6-1.1-0.7-1.7h-5.6
			C192.4,69.2,193.2,71.2,194.5,72.9z M197.8,63.8c0.2-0.6,0.4-1.2,0.7-1.7l-4-4c-1.3,1.7-2.1,3.7-2.4,5.7H197.8L197.8,63.8z"/>
		<path id="Caminho_27" class="st0" d="M62.6,45.8c10.9,0,19.7,8.8,19.7,19.6c0,10.9-8.8,19.7-19.6,19.7c-10.2,0-18.7-7.8-19.6-18
			c0-0.6-0.1-1.1-0.1-1.7C43,54.6,51.8,45.8,62.6,45.8C62.6,45.8,62.6,45.8,62.6,45.8z M72.5,58l-4,4c0.3,0.5,0.6,1.1,0.7,1.7h5.6
			C74.5,61.7,73.7,59.7,72.5,58z M74.8,67.2h-5.7c-0.2,0.6-0.4,1.2-0.7,1.7l4,4C73.7,71.2,74.6,69.2,74.8,67.2L74.8,67.2z
			 M64.3,77.6c2.1-0.3,4-1.1,5.7-2.4l-4-4c-0.5,0.3-1.1,0.5-1.7,0.7L64.3,77.6z M64.3,58.9c0.6,0.2,1.2,0.4,1.7,0.7l4-4
			c-1.7-1.3-3.7-2.1-5.7-2.4L64.3,58.9L64.3,58.9z M60.9,53.2c-2.1,0.3-4.1,1.1-5.7,2.4l4,4c0.5-0.3,1.1-0.6,1.7-0.7L60.9,53.2
			L60.9,53.2z M60.9,77.6V72c-0.6-0.1-1.2-0.4-1.7-0.7l-4,4C56.9,76.5,58.9,77.3,60.9,77.6L60.9,77.6z M52.8,72.9l4-4
			c-0.3-0.5-0.6-1.1-0.7-1.7h-5.7C50.7,69.2,51.5,71.2,52.8,72.9z M56.1,63.8c0.2-0.6,0.4-1.2,0.7-1.7l-4-4
			c-1.3,1.7-2.1,3.7-2.4,5.7H56.1L56.1,63.8z"/>
		<path id="Caminho_28" class="st0" d="M4.8,51.3h3.9l1-23.3c0.1-1.4,1.3-2.6,2.7-2.6L65.9,26V6.6c0-1.8,1.5-3.3,3.3-3.3
			c0,0,0,0,0,0h2.6c1.8,0,3.3,1.5,3.3,3.3v0v19.4l7.1,0.1L83.6,9c0.3-3.6,3.3-6.3,6.9-6.3h65.1c2.3,0,4.5,0.9,6.1,2.4l21.8,21
			l41.8,4.4c5.8,0.6,11.1,3.5,14.7,8.1l4.3,5.5c3.3,2,4.9,5.9,4.1,9.7l-1.3,5.9c-0.6,2.5-2.5,4.5-5.1,5.1l-14.3,3.1
			c0.1-0.8,0.2-1.6,0.2-2.3c-0.1-13-10.7-23.5-23.7-23.4c-12.9,0.1-23.4,10.5-23.4,23.4c0,0.7,0,1.3,0.1,2c0,0.2,0,0.3,0.1,0.5H86
			c0.1-0.8,0.2-1.7,0.2-2.5c0-13-10.5-23.6-23.6-23.6c-13,0-23.6,10.5-23.6,23.6c0,0.7,0,1.3,0.1,2c0,0.2,0.1,0.3,0.1,0.5h-12
			l-10.8-6H4.8c-1.8,0-3.2-1.4-3.2-3.2c0,0,0,0,0,0v-4.2C1.6,52.8,3,51.3,4.8,51.3z M166.3,27.3c-0.8-2.3-0.8-4.9,0-7.2l-8.6-10.7
			c-0.5-0.6-1.2-1-2-1h-25.8v18.8L166.3,27.3L166.3,27.3z M120.3,27.3V8.5H96.9c-1.4,0-2.5,1.1-2.6,2.5l-0.7,16.4L120.3,27.3z"/>
	</g>
</g>
</svg>
