<svg version="1.1" id="Camada_1" xmlns="http://www.w3.org/2000/svg" x="0" y="0" viewBox="0 0 250 86.8" xml:space="preserve"><style>.st0{fill:#dcdee9}</style><g id="pick-up"><g id="Grupo_18"><path id="Caminho_26" class="st0" d="M204.3 45.8c10.9 0 19.7 8.8 19.7 19.6 0 .8-.1 1.7-.2 2.5-1.4 10.8-11.2 18.4-22 17-9.2-1.2-16.3-8.6-17.1-17.8 0-.6-.1-1.1-.1-1.7.1-10.8 8.9-19.6 19.7-19.6zm9.9 12.2l-4 4c.3.5.6 1.1.7 1.7h5.6c-.3-2-1.1-4-2.3-5.7zm2.3 9.2h-5.7c-.2.6-.4 1.2-.7 1.7l4 4c1.3-1.7 2.2-3.7 2.4-5.7zM206 77.6c2.1-.3 4-1.1 5.7-2.4l-4-4c-.5.3-1.1.5-1.7.7v5.7zm0-18.7c.6.2 1.2.4 1.7.7l4-4c-1.7-1.3-3.7-2.1-5.7-2.4v5.7zm-3.4-5.7c-2.1.3-4.1 1.1-5.7 2.4l4 4c.5-.3 1.1-.6 1.7-.7v-5.7zm0 24.4V72c-.6-.1-1.2-.4-1.7-.7l-4 4c1.7 1.2 3.7 2 5.7 2.3zm-8.1-4.7l4-4c-.3-.5-.6-1.1-.7-1.7h-5.6c.2 2 1 4 2.3 5.7zm3.3-9.1c.2-.6.4-1.2.7-1.7l-4-4c-1.3 1.7-2.1 3.7-2.4 5.7h5.7z"/><path id="Caminho_27" class="st0" d="M62.6 45.8c10.9 0 19.7 8.8 19.7 19.6 0 10.9-8.8 19.7-19.6 19.7-10.2 0-18.7-7.8-19.6-18 0-.6-.1-1.1-.1-1.7 0-10.8 8.8-19.6 19.6-19.6zM72.5 58l-4 4c.3.5.6 1.1.7 1.7h5.6c-.3-2-1.1-4-2.3-5.7zm2.3 9.2h-5.7c-.2.6-.4 1.2-.7 1.7l4 4c1.3-1.7 2.2-3.7 2.4-5.7zM64.3 77.6c2.1-.3 4-1.1 5.7-2.4l-4-4c-.5.3-1.1.5-1.7.7v5.7zm0-18.7c.6.2 1.2.4 1.7.7l4-4c-1.7-1.3-3.7-2.1-5.7-2.4v5.7zm-3.4-5.7c-2.1.3-4.1 1.1-5.7 2.4l4 4c.5-.3 1.1-.6 1.7-.7v-5.7zm0 24.4V72c-.6-.1-1.2-.4-1.7-.7l-4 4c1.7 1.2 3.7 2 5.7 2.3zm-8.1-4.7l4-4c-.3-.5-.6-1.1-.7-1.7h-5.7c.3 2 1.1 4 2.4 5.7zm3.3-9.1c.2-.6.4-1.2.7-1.7l-4-4c-1.3 1.7-2.1 3.7-2.4 5.7h5.7z"/><path id="Caminho_28" class="st0" d="M4.8 51.3h3.9l1-23.3c.1-1.4 1.3-2.6 2.7-2.6l53.5.6V6.6c0-1.8 1.5-3.3 3.3-3.3h2.6c1.8 0 3.3 1.5 3.3 3.3V26l7.1.1L83.6 9c.3-3.6 3.3-6.3 6.9-6.3h65.1c2.3 0 4.5.9 6.1 2.4l21.8 21 41.8 4.4c5.8.6 11.1 3.5 14.7 8.1l4.3 5.5c3.3 2 4.9 5.9 4.1 9.7l-1.3 5.9c-.6 2.5-2.5 4.5-5.1 5.1l-14.3 3.1c.1-.8.2-1.6.2-2.3-.1-13-10.7-23.5-23.7-23.4-12.9.1-23.4 10.5-23.4 23.4 0 .7 0 1.3.1 2 0 .2 0 .3.1.5H86c.1-.8.2-1.7.2-2.5 0-13-10.5-23.6-23.6-23.6C49.6 42 39 52.5 39 65.6c0 .7 0 1.3.1 2 0 .2.1.3.1.5h-12l-10.8-6H4.8c-1.8 0-3.2-1.4-3.2-3.2v-4.2c0-1.9 1.4-3.4 3.2-3.4zm161.5-24c-.8-2.3-.8-4.9 0-7.2l-8.6-10.7c-.5-.6-1.2-1-2-1h-25.8v18.8l36.4.1zm-46 0V8.5H96.9c-1.4 0-2.5 1.1-2.6 2.5l-.7 16.4 26.7-.1z"/></g></g></svg>