<svg version="1.1" id="Camada_1" xmlns="http://www.w3.org/2000/svg" x="0" y="0" viewBox="0 0 250 91.8" xml:space="preserve"><style>.st0{fill:#dcdee9}</style><g id="sedan-car-model" transform="translate(.001 -31.876)"><g id="Grupo_11" transform="translate(-.001 31.876)"><path id="Caminho_16" class="st0" d="M44.8 52.2c-10.2 0-18.6 8.3-18.6 18.6 0 .8.1 1.6.2 2.3C27.7 83.3 37 90.5 47.1 89.2c8.7-1.1 15.4-8.1 16.1-16.8 0-.5.1-1 .1-1.6.1-10.2-8.2-18.6-18.5-18.6zm-9.3 11.6l3.8 3.8c-.3.5-.5 1.1-.7 1.6h-5.3c.3-1.9 1-3.8 2.2-5.4zm-2.2 8.6h5.4c.1.6.4 1.1.7 1.6l-3.8 3.8c-1.3-1.5-2-3.4-2.3-5.4zm9.9 9.9c-2-.3-3.8-1-5.4-2.2l3.8-3.8c.5.3 1 .5 1.6.7v5.3zm0-17.7c-.6.2-1.1.4-1.6.7l-3.8-3.8c1.6-1.2 3.5-2 5.4-2.2v5.3zm3.2-5.3c2 .3 3.8 1 5.4 2.2L48 65.3c-.5-.3-1.1-.5-1.6-.7v-5.3zm0 23V77c.6-.1 1.1-.4 1.6-.7l3.8 3.8c-1.6 1.2-3.4 1.9-5.4 2.2zm7.7-4.4L50.3 74c.3-.5.5-1 .7-1.6h5.3c-.2 2-1 3.9-2.2 5.5zM51 69.2c-.1-.6-.4-1.1-.7-1.6l3.8-3.8c1.2 1.6 2 3.5 2.2 5.4H51z"/><path id="Caminho_17" class="st0" d="M198.9 52.2c-10.2 0-18.6 8.3-18.6 18.6 0 .8.1 1.6.2 2.3 1.3 10.2 10.6 17.4 20.7 16.1 8.7-1.1 15.4-8.1 16.2-16.8 0-.5.1-1 .1-1.6-.1-10.2-8.4-18.6-18.6-18.6zm-9.3 11.6l3.8 3.8c-.3.5-.5 1.1-.7 1.6h-5.3c.2-1.9 1-3.8 2.2-5.4zm-2.2 8.6h5.4c.1.6.4 1.1.7 1.6l-3.8 3.8c-1.3-1.5-2.1-3.4-2.3-5.4zm9.9 9.9c-2-.3-3.8-1-5.4-2.2l3.8-3.8c.5.3 1 .5 1.6.7v5.3zm0-17.7c-.6.2-1.1.4-1.6.7l-3.8-3.8c1.6-1.2 3.4-2 5.4-2.2v5.3zm3.2-5.3c2 .3 3.8 1 5.4 2.2l-3.8 3.8c-.5-.3-1.1-.5-1.6-.7v-5.3zm0 23V77c.6-.1 1.1-.4 1.6-.7l3.8 3.8c-1.6 1.2-3.4 1.9-5.4 2.2zm7.7-4.4l-3.8-3.8c.3-.5.5-1 .7-1.6h5.3c-.3 1.9-1 3.8-2.2 5.4zm-3.1-8.7c-.1-.6-.4-1.1-.7-1.6l3.8-3.8c1.2 1.6 2 3.5 2.2 5.4h-5.3z"/><path id="Caminho_18" class="st0" d="M243.4 42.6V28.9c0-2.2-1.6-4.1-3.8-4.4-5.2-.8-14.5-2.4-18.7-3.7-6-1.8-29.1-11.6-37.1-13.5s-44.1-11.6-78.6.3c-5.8 2-32.1 14.6-47.6 21.1-4.6.1-49.6 9.5-52 15.9C4.2 48.4 3 52.2 2 56c-.4 1.6 0 9.5 3.3 14.9 3.4 1.9 10 3.2 17.6 4.1-.1-.5-.2-.9-.2-1.4-.1-.9-.2-1.9-.2-2.8 0-12.3 10-22.3 22.3-22.3s22.3 10 22.3 22.3c0 .6 0 1.3-.1 1.9-.1 1.4-.4 2.7-.7 4h.1L177 74.5c0-.3-.1-.6-.2-.9-.1-.9-.2-1.9-.2-2.8.1-12.3 10.1-22.2 22.4-22.2 12.2.1 22.1 10 22.2 22.2v.1h.5l18.9-3.6s7.2-3.9 7.2-14.5c0-7-4.4-10.2-4.4-10.2zm-109.7-13l-41.3 1.3c.8-6.2-2.9-7.6-2.9-7.6C105.9 8.4 139 7.9 139 7.9l-5.3 21.7zm46.4-1.9L142.4 29l3.4-21.1c19.5-.3 30.6 4 30.6 4l5.6 9-1.9 6.8zm21.2-.1h-10.5l-10.5-14.4c7.9 3.1 14.2 6.2 17.9 8.2 2.3 1.1 3.6 3.7 3.1 6.2z"/></g></g></svg>