<?xml version="1.0" encoding="utf-8"?>
<!-- Generator: Adobe Illustrator 25.2.1, SVG Export Plug-In . SVG Version: 6.00 Build 0)  -->
<svg version="1.1" id="Camada_1" xmlns="http://www.w3.org/2000/svg" xmlns:xlink="http://www.w3.org/1999/xlink" x="0px" y="0px"
	 viewBox="0 0 150 150" style="enable-background:new 0 0 150 150;" xml:space="preserve">
<style type="text/css">
	.st0{fill:#EFEFF9;}
	.st1{fill:#FF6700;}
</style>
<g>
	<path id="Caminho_22" class="st0" d="M32.2,145.1H110c17.2,0,31.1-13.9,31.1-31.1V76.2c0-4.3-3.5-7.8-7.8-7.8s-7.8,3.5-7.8,7.8
		v37.8c0,8.6-7,15.6-15.6,15.6h0H32.2c-8.6,0-15.6-7-15.6-15.6c0,0,0,0,0,0V36.1c0-8.6,7-15.6,15.6-15.6l0,0h38.9
		c4.3,0,7.8-3.5,7.8-7.8s-3.5-7.8-7.8-7.8H32.2C15,4.9,1,18.9,1,36.1c0,0,0,0,0,0v77.8C1,131.1,15,145.1,32.2,145.1z"/>
	<path id="Caminho_23" class="st1" d="M135.6,15L71.1,79.6L45.5,53.9c-3.1-3-8-3-11.1,0c-3,3.1-3,8,0,11l31.1,31.1c3,3.1,8,3.1,11,0
		c0,0,0,0,0,0L146.7,26c3.1-3,3.1-8,0-11.1C143.6,11.9,138.7,11.9,135.6,15C135.6,15,135.6,15,135.6,15z"/>
</g>
</svg>
