<svg xmlns="http://www.w3.org/2000/svg" viewBox="0 0 150 150"><path d="M32.2 145.1H110c17.2 0 31.1-13.9 31.1-31.1V76.2c0-4.3-3.5-7.8-7.8-7.8s-7.8 3.5-7.8 7.8V114c0 8.6-7 15.6-15.6 15.6H32.2c-8.6 0-15.6-7-15.6-15.6V36.1c0-8.6 7-15.6 15.6-15.6h38.9c4.3 0 7.8-3.5 7.8-7.8s-3.5-7.8-7.8-7.8H32.2C15 4.9 1 18.9 1 36.1v77.8c0 17.2 14 31.2 31.2 31.2z" fill="#efeff9"/><path d="M135.6 15L71.1 79.6 45.5 53.9c-3.1-3-8-3-11.1 0-3 3.1-3 8 0 11L65.5 96c3 3.1 8 3.1 11 0l70.2-70c3.1-3 3.1-8 0-11.1-3.1-3-8-3-11.1.1z" fill="#ff6700"/></svg>