<?xml version="1.0" encoding="utf-8"?>
<!-- Generator: Adobe Illustrator 25.2.1, SVG Export Plug-In . SVG Version: 6.00 Build 0)  -->
<svg version="1.1" id="Camada_1" xmlns="http://www.w3.org/2000/svg" xmlns:xlink="http://www.w3.org/1999/xlink" x="0px" y="0px"
	 viewBox="0 0 150 150" style="enable-background:new 0 0 150 150;" xml:space="preserve">
<style type="text/css">
	.st0{fill:#EFEFF9;}
</style>
<g id="Prancheta_12" transform="translate(406.85)">
	<path id="Caminho_41" class="st0" d="M-281.8,54.9c-0.1-4.2-0.9-8.3-2.3-12.2c-2.6-6.8-8-12.1-14.7-14.7c-3.9-1.5-8.1-2.3-12.2-2.3
		c-5.4-0.3-7.1-0.3-20.7-0.3c-13.7,0-15.3,0.1-20.7,0.3c-4.2,0.1-8.3,0.9-12.2,2.3c-6.8,2.6-12.1,8-14.7,14.7
		c-1.5,3.9-2.3,8-2.4,12.2c-0.3,5.4-0.3,7.1-0.3,20.7s0.1,15.3,0.3,20.7c0.1,4.2,0.9,8.3,2.3,12.2c2.6,6.8,8,12.1,14.7,14.7
		c3.9,1.5,8,2.3,12.2,2.3c5.4,0.2,7.1,0.3,20.7,0.3c13.7,0,15.3-0.1,20.7-0.3c4.2-0.1,8.3-0.9,12.2-2.3c6.8-2.6,12.1-8,14.7-14.7
		c1.5-3.9,2.3-8,2.3-12.2c0.2-5.4,0.3-7.1,0.3-20.7S-281.6,60.3-281.8,54.9L-281.8,54.9z M-290.8,96c0,3.2-0.6,6.3-1.7,9.3
		c-1.7,4.4-5.2,7.9-9.5,9.5c-3,1.1-6.1,1.7-9.3,1.7c-5.3,0.2-6.9,0.3-20.3,0.3s-15-0.1-20.3-0.3c-3.2,0-6.3-0.6-9.3-1.7
		c-4.4-1.7-7.8-5.1-9.5-9.5c-1.1-3-1.7-6.1-1.7-9.3c-0.2-5.3-0.3-6.9-0.3-20.3s0.1-15,0.3-20.3c0-3.2,0.6-6.3,1.7-9.3
		c0.8-2.2,2.1-4.2,3.7-5.8c1.6-1.7,3.6-3,5.8-3.8c3-1.1,6.1-1.7,9.3-1.7c5.3-0.2,6.9-0.3,20.3-0.3s15,0.1,20.3,0.3
		c3.2,0,6.4,0.6,9.4,1.7c4.4,1.7,7.8,5.1,9.5,9.5c1.1,3,1.7,6.1,1.7,9.3c0.2,5.3,0.3,6.9,0.3,20.3S-290.6,90.7-290.8,96L-290.8,96z"
		/>
	<path id="Caminho_42" class="st0" d="M-333.1,51c-14.3,0-25.9,11.6-25.9,25.9c0,14.3,11.6,25.9,25.9,25.9
		c14.3,0,25.9-11.6,25.9-25.9c0,0,0,0,0,0C-307.2,62.6-318.8,51-333.1,51z M-333.1,93.7c-9.3,0-16.8-7.5-16.8-16.8
		c0-9.3,7.5-16.8,16.8-16.8c9.3,0,16.8,7.5,16.8,16.8c0,4.5-1.8,8.7-4.9,11.9C-324.3,91.9-328.6,93.7-333.1,93.7z M-300.1,49.9
		c0,3.3-2.7,6-6,6c-3.3,0-6-2.7-6-6c0-3.3,2.7-6,6-6c1.6,0,3.1,0.6,4.3,1.8C-300.7,46.8-300.1,48.3-300.1,49.9L-300.1,49.9z"/>
</g>
</svg>
