<svg version="1.1" id="Camada_1" xmlns="http://www.w3.org/2000/svg" x="0" y="0" viewBox="0 0 150 150" xml:space="preserve"><style>.st0{fill:#efeff9}</style><g id="Prancheta_12" transform="translate(406.85)"><path id="Caminho_41" class="st0" d="M-281.8 54.9c-.1-4.2-.9-8.3-2.3-12.2-2.6-6.8-8-12.1-14.7-14.7-3.9-1.5-8.1-2.3-12.2-2.3-5.4-.3-7.1-.3-20.7-.3-13.7 0-15.3.1-20.7.3-4.2.1-8.3.9-12.2 2.3-6.8 2.6-12.1 8-14.7 14.7-1.5 3.9-2.3 8-2.4 12.2-.3 5.4-.3 7.1-.3 20.7s.1 15.3.3 20.7c.1 4.2.9 8.3 2.3 12.2 2.6 6.8 8 12.1 14.7 14.7 3.9 1.5 8 2.3 12.2 2.3 5.4.2 7.1.3 20.7.3 13.7 0 15.3-.1 20.7-.3 4.2-.1 8.3-.9 12.2-2.3 6.8-2.6 12.1-8 14.7-14.7 1.5-3.9 2.3-8 2.3-12.2.2-5.4.3-7.1.3-20.7s0-15.3-.2-20.7zm-9 41.1c0 3.2-.6 6.3-1.7 9.3-1.7 4.4-5.2 7.9-9.5 9.5-3 1.1-6.1 1.7-9.3 1.7-5.3.2-6.9.3-20.3.3s-15-.1-20.3-.3c-3.2 0-6.3-.6-9.3-1.7-4.4-1.7-7.8-5.1-9.5-9.5-1.1-3-1.7-6.1-1.7-9.3-.2-5.3-.3-6.9-.3-20.3s.1-15 .3-20.3c0-3.2.6-6.3 1.7-9.3.8-2.2 2.1-4.2 3.7-5.8 1.6-1.7 3.6-3 5.8-3.8 3-1.1 6.1-1.7 9.3-1.7 5.3-.2 6.9-.3 20.3-.3s15 .1 20.3.3c3.2 0 6.4.6 9.4 1.7 4.4 1.7 7.8 5.1 9.5 9.5 1.1 3 1.7 6.1 1.7 9.3.2 5.3.3 6.9.3 20.3s-.2 15.1-.4 20.4z"/><path id="Caminho_42" class="st0" d="M-333.1 51c-14.3 0-25.9 11.6-25.9 25.9 0 14.3 11.6 25.9 25.9 25.9 14.3 0 25.9-11.6 25.9-25.9 0-14.3-11.6-25.9-25.9-25.9zm0 42.7c-9.3 0-16.8-7.5-16.8-16.8s7.5-16.8 16.8-16.8 16.8 7.5 16.8 16.8c0 4.5-1.8 8.7-4.9 11.9-3.1 3.1-7.4 4.9-11.9 4.9zm33-43.8c0 3.3-2.7 6-6 6s-6-2.7-6-6 2.7-6 6-6c1.6 0 3.1.6 4.3 1.8 1.1 1.1 1.7 2.6 1.7 4.2z"/></g></svg>