<svg version="1.1" id="Camada_1" xmlns="http://www.w3.org/2000/svg" x="0" y="0" viewBox="0 0 250 48" xml:space="preserve"><style>.st0{fill:#efeff9}</style><g id="Grupo_20" transform="translate(-388.176 -437.227)"><path id="Caminho_30" class="st0" d="M420.7 441.7h-6.1V464L393 442.4l-3.3-3.3v41.7h8.1v-22.3l21.6 21.6 3.3 3.4V441.7h-2zm0 2z"/><path id="Caminho_31" class="st0" d="M477.8 441.6l-6 .1h-.8l-.6.6-27.6 27.7-27.7-27.7-.6-.6h-.8l-6-.1-4.8-.1 3.4 3.4 35 35.1 1.4 1.4 1.4-1.4 35-35.1 3.4-3.4-4.7.1z"/><path id="Caminho_32" class="st0" d="M430.4 441.5v.8c0 6.9 5.6 12.4 12.5 12.4s12.4-5.6 12.4-12.4v-.8h-24.9z"/><path id="Caminho_33" class="st0" d="M516.6 450.7c-5.5 0-9.9 4.4-9.9 9.9v1c0 5.5 4.4 9.9 9.9 9.9s9.9-4.4 9.9-9.9v-1c0-5.5-4.4-9.9-9.9-9.9zm5.5 9.9v1c0 3-2.5 5.5-5.5 5.5s-5.5-2.5-5.5-5.5v-1c0-3 2.5-5.5 5.5-5.5 3.1-.1 5.5 2.4 5.5 5.5z"/><path id="Caminho_34" class="st0" d="M626.9 450.7c-5.5 0-9.9 4.4-9.9 9.9v1c0 5.5 4.4 9.9 9.9 9.9s9.9-4.4 9.9-9.9v-1c0-5.5-4.5-9.9-9.9-9.9zm5.5 9.9v1c0 3-2.5 5.5-5.5 5.5s-5.5-2.5-5.5-5.5v-1c0-3 2.5-5.5 5.5-5.5 3-.1 5.5 2.4 5.5 5.5z"/><path id="Caminho_35" class="st0" d="M504.5 450.7h-4.4v11.9l-15.4-11.9v20.8h4.4v-11.9l15.4 11.9v-20.8z"/><path id="Retângulo_30" class="st0" d="M571.9 450.7h4.4v20.8h-4.4z"/><path id="Retângulo_31" class="st0" d="M603.8 444.1h9.3v4.4h-9.3z"/><path id="Caminho_36" class="st0" d="M598.3 455v-4.4h-13.5c-3.5 0-6.3 2.8-6.3 6.3s2.8 6.3 6.3 6.3h7.2c1.1 0 1.9.9 1.9 1.9 0 1.1-.9 1.9-1.9 1.9h-13.5v4.4H592c3.5 0 6.3-2.8 6.3-6.3s-2.8-6.3-6.3-6.3h-7.2c-1.1 0-1.9-.9-1.9-1.9 0-1.1.9-1.9 1.9-1.9h13.5z"/><path id="Caminho_37" class="st0" d="M545.1 450.7h-4.9l-5 10.6-5-10.6h-4.9l9.9 20.8 9.9-20.8z"/><path id="Caminho_38" class="st0" d="M569.7 450.7h-4.9l-5 10.6-5-10.6h-4.9l9.9 20.8 9.9-20.8z"/><path id="Caminho_39" class="st0" d="M557.4 471.4l-9.9-20.8-9.9 20.8h19.8zm-12.9-4.4l2.9-6.2 2.9 6.2h-5.8z"/><path id="Caminho_40" class="st0" d="M618.2 471.4l-9.9-20.8-9.9 20.8h19.8zm-12.9-4.4l2.9-6.2 2.9 6.2h-5.8z"/></g></svg>