<?xml version="1.0" encoding="utf-8"?>
<!-- Generator: Adobe Illustrator 25.2.1, SVG Export Plug-In . SVG Version: 6.00 Build 0)  -->
<svg version="1.1" id="Camada_1" xmlns="http://www.w3.org/2000/svg" xmlns:xlink="http://www.w3.org/1999/xlink" x="0px" y="0px"
	 viewBox="0 0 250 48" style="enable-background:new 0 0 250 48;" xml:space="preserve">
<style type="text/css">
	.st0{fill:#FF6700;}
	.st1{fill:#FFC200;}
	.st2{fill:#DDDDDD;}
</style>
<g id="Logo" transform="translate(-482.051 -442.23)">
	<path id="Caminho_4" class="st0" d="M535.5,454.7L535.5,454.7c-8.9,0-16,7.2-16,16l0,0v1.6c0,8.9,7.2,16,16,16l0,0
		c8.9,0,16-7.2,16-16v-1.6C551.5,461.9,544.3,454.7,535.5,454.7L535.5,454.7z M544.4,470.8v1.6c0,4.9-4,8.9-8.9,8.9c0,0,0,0,0,0l0,0
		c-4.9,0-8.9-4-8.9-8.9v-1.6c0-4.9,4-8.9,8.9-8.9l0,0C540.4,461.8,544.4,465.8,544.4,470.8L544.4,470.8z"/>
	<path id="Caminho_5" class="st1" d="M714.2,454.7L714.2,454.7c-8.9,0-16,7.2-16,16l0,0v1.6c0,8.9,7.2,16,16,16l0,0
		c8.9,0,16-7.2,16-16v-1.6C730.3,461.9,723.1,454.7,714.2,454.7L714.2,454.7z M723.2,470.8v1.6c0,4.9-4,8.9-8.9,8.9l0,0l0,0
		c-4.9,0-8.9-4-8.9-8.9c0,0,0,0,0,0v-1.6c0-4.9,4-8.9,8.9-8.9c0,0,0,0,0,0l0,0C719.2,461.8,723.2,465.8,723.2,470.8L723.2,470.8z"/>
	<path id="Caminho_6" class="st0" d="M515.9,454.7h-7.1V474l-25-19.2v33.7h7.1v-19.2l25,19.2L515.9,454.7L515.9,454.7z"/>
	<rect id="Retângulo_2" x="625.2" y="454.7" class="st1" width="7.1" height="33.7"/>
	<rect id="Retângulo_3" x="676.8" y="444.1" class="st2" width="15.2" height="7.1"/>
	<path id="Caminho_7" class="st1" d="M667.9,461.8v-7.1H646c-5.6,0-10.2,4.6-10.2,10.2l0,0c0,5.6,4.6,10.2,10.2,10.2h11.7
		c1.7,0,3.1,1.4,3.1,3.1l0,0l0,0c0,1.7-1.4,3.1-3.1,3.1h-21.9v7.1h21.9c5.6,0,10.2-4.6,10.2-10.2l0,0c0-5.6-4.6-10.2-10.2-10.2H646
		c-1.7,0-3.1-1.4-3.1-3.1l0,0c0-1.7,1.4-3.1,3.1-3.1L667.9,461.8z"/>
	<path id="Caminho_8" class="st0" d="M581.7,454.7h-7.9l-8.2,17.2l-8.2-17.2h-7.9l16.1,33.7L581.7,454.7z"/>
	<path id="Caminho_9" class="st1" d="M621.6,454.7h-7.9l-8.2,17.2l-8.2-17.2h-7.9l16.1,33.7L621.6,454.7z"/>
	<path id="Caminho_10" class="st0" d="M601.6,488.4l-16.1-33.7l-16,33.7L601.6,488.4L601.6,488.4z M580.8,481.3l4.8-10.1l4.8,10.1
		H580.8z"/>
	<path id="Caminho_11" class="st1" d="M700.2,488.4l-16.1-33.7l-16,33.7L700.2,488.4L700.2,488.4z M679.4,481.3l4.8-10.1l4.8,10.1
		H679.4z"/>
</g>
</svg>
