<svg version="1.1" id="Camada_1" xmlns="http://www.w3.org/2000/svg" x="0" y="0" viewBox="0 0 250 48" xml:space="preserve"><style>.st0{fill:#ff6700}.st1{fill:#ffc200}</style><g id="Logo" transform="translate(-482.051 -442.23)"><path id="Caminho_4" class="st0" d="M535.5 454.7c-8.9 0-16 7.2-16 16v1.6c0 8.9 7.2 16 16 16 8.9 0 16-7.2 16-16v-1.6c0-8.8-7.2-16-16-16zm8.9 16.1v1.6c0 4.9-4 8.9-8.9 8.9s-8.9-4-8.9-8.9v-1.6c0-4.9 4-8.9 8.9-8.9 4.9-.1 8.9 3.9 8.9 8.9z"/><path id="Caminho_5" class="st1" d="M714.2 454.7c-8.9 0-16 7.2-16 16v1.6c0 8.9 7.2 16 16 16 8.9 0 16-7.2 16-16v-1.6c.1-8.8-7.1-16-16-16zm9 16.1v1.6c0 4.9-4 8.9-8.9 8.9s-8.9-4-8.9-8.9v-1.6c0-4.9 4-8.9 8.9-8.9 4.9-.1 8.9 3.9 8.9 8.9z"/><path id="Caminho_6" class="st0" d="M515.9 454.7h-7.1V474l-25-19.2v33.7h7.1v-19.2l25 19.2v-33.8z"/><path id="Retângulo_2" class="st1" d="M625.2 454.7h7.1v33.7h-7.1z"/><path id="Retângulo_3" fill="#ddd" d="M676.8 444.1H692v7.1h-15.2z"/><path id="Caminho_7" class="st1" d="M667.9 461.8v-7.1H646c-5.6 0-10.2 4.6-10.2 10.2s4.6 10.2 10.2 10.2h11.7c1.7 0 3.1 1.4 3.1 3.1 0 1.7-1.4 3.1-3.1 3.1h-21.9v7.1h21.9c5.6 0 10.2-4.6 10.2-10.2s-4.6-10.2-10.2-10.2H646c-1.7 0-3.1-1.4-3.1-3.1 0-1.7 1.4-3.1 3.1-3.1h21.9z"/><path id="Caminho_8" class="st0" d="M581.7 454.7h-7.9l-8.2 17.2-8.2-17.2h-7.9l16.1 33.7 16.1-33.7z"/><path id="Caminho_9" class="st1" d="M621.6 454.7h-7.9l-8.2 17.2-8.2-17.2h-7.9l16.1 33.7 16.1-33.7z"/><path id="Caminho_10" class="st0" d="M601.6 488.4l-16.1-33.7-16 33.7h32.1zm-20.8-7.1l4.8-10.1 4.8 10.1h-9.6z"/><path id="Caminho_11" class="st1" d="M700.2 488.4l-16.1-33.7-16 33.7h32.1zm-20.8-7.1l4.8-10.1 4.8 10.1h-9.6z"/></g></svg>