<?xml version="1.0" encoding="utf-8"?>
<!-- Generator: Adobe Illustrator 25.2.1, SVG Export Plug-In . SVG Version: 6.00 Build 0)  -->
<svg version="1.1" id="Camada_1" xmlns="http://www.w3.org/2000/svg" xmlns:xlink="http://www.w3.org/1999/xlink" x="0px" y="0px"
	 viewBox="0 0 250 48" style="enable-background:new 0 0 250 48;" xml:space="preserve">
<style type="text/css">
	.st0{fill:#EFEFF9;}
</style>
<g id="Grupo_20" transform="translate(-388.176 -437.227)">
	<path id="Caminho_30" class="st0" d="M420.7,441.7h-6.1V464l-21.6-21.6l-3.3-3.3v41.7h8.1v-22.3l21.6,21.6l0,0l3.3,3.4v-4.7l0-35.1
		v-2L420.7,441.7z M420.7,443.7L420.7,443.7z"/>
	<path id="Caminho_31" class="st0" d="M477.8,441.6l-6,0.1l-0.8,0l-0.6,0.6L442.8,470l-27.7-27.7l-0.6-0.6l-0.8,0l-6-0.1l-4.8-0.1
		l3.4,3.4l35,35.1l1.4,1.4l0,0l0,0l1.4-1.4l35-35.1l3.4-3.4L477.8,441.6z"/>
	<path id="Caminho_32" class="st0" d="M430.4,441.5c0,0.3,0,0.5,0,0.8c0,6.9,5.6,12.4,12.5,12.4c6.9,0,12.4-5.6,12.4-12.4
		c0-0.3,0-0.5,0-0.8H430.4z"/>
	<path id="Caminho_33" class="st0" d="M516.6,450.7L516.6,450.7c-5.5,0-9.9,4.4-9.9,9.9v1c0,5.5,4.4,9.9,9.9,9.9l0,0
		c5.5,0,9.9-4.4,9.9-9.9v-1C526.5,455.1,522.1,450.7,516.6,450.7z M522.1,460.6v1c0,3-2.5,5.5-5.5,5.5c0,0,0,0,0,0l0,0
		c-3,0-5.5-2.5-5.5-5.5c0,0,0,0,0,0v-1c0-3,2.5-5.5,5.5-5.5l0,0C519.7,455,522.1,457.5,522.1,460.6L522.1,460.6z"/>
	<path id="Caminho_34" class="st0" d="M626.9,450.7L626.9,450.7c-5.5,0-9.9,4.4-9.9,9.9c0,0,0,0,0,0v1c0,5.5,4.4,9.9,9.9,9.9l0,0
		l0,0c5.5,0,9.9-4.4,9.9-9.9c0,0,0,0,0,0v-1C636.8,455.1,632.3,450.7,626.9,450.7L626.9,450.7z M632.4,460.6v1c0,3-2.5,5.5-5.5,5.5
		l0,0c-3,0-5.5-2.5-5.5-5.5c0,0,0,0,0,0v-1c0-3,2.5-5.5,5.5-5.5l0,0l0,0C629.9,455,632.4,457.5,632.4,460.6L632.4,460.6z"/>
	<path id="Caminho_35" class="st0" d="M504.5,450.7h-4.4v11.9l-15.4-11.9v20.8h4.4v-11.9l15.4,11.9L504.5,450.7L504.5,450.7z"/>
	<rect id="Retângulo_30" x="571.9" y="450.7" class="st0" width="4.4" height="20.8"/>
	<rect id="Retângulo_31" x="603.8" y="444.1" class="st0" width="9.3" height="4.4"/>
	<path id="Caminho_36" class="st0" d="M598.3,455v-4.4h-13.5c-3.5,0-6.3,2.8-6.3,6.3l0,0c0,3.5,2.8,6.3,6.3,6.3h7.2
		c1.1,0,1.9,0.9,1.9,1.9c0,0,0,0,0,0l0,0c0,1.1-0.9,1.9-1.9,1.9h-13.5v4.4H592c3.5,0,6.3-2.8,6.3-6.3l0,0c0-3.5-2.8-6.3-6.3-6.3
		h-7.2c-1.1,0-1.9-0.9-1.9-1.9l0,0c0-1.1,0.9-1.9,1.9-1.9L598.3,455z"/>
	<path id="Caminho_37" class="st0" d="M545.1,450.7h-4.9l-5,10.6l-5-10.6h-4.9l9.9,20.8L545.1,450.7z"/>
	<path id="Caminho_38" class="st0" d="M569.7,450.7h-4.9l-5,10.6l-5-10.6h-4.9l9.9,20.8L569.7,450.7z"/>
	<path id="Caminho_39" class="st0" d="M557.4,471.4l-9.9-20.8l-9.9,20.8H557.4L557.4,471.4z M544.5,467l2.9-6.2l2.9,6.2H544.5z"/>
	<path id="Caminho_40" class="st0" d="M618.2,471.4l-9.9-20.8l-9.9,20.8H618.2L618.2,471.4z M605.3,467l2.9-6.2l2.9,6.2H605.3z"/>
</g>
</svg>
