<svg version="1.1" id="Camada_1" xmlns="http://www.w3.org/2000/svg" x="0" y="0" viewBox="0 0 150 150" xml:space="preserve"><style>.st0{fill:#efeff9}</style><g id="whatsapp"><path id="Caminho_96" class="st0" d="M98 85.6l-.1.3c-9.1-4.6-10.2-5.2-11.4-3.4-.8 1.2-3.2 4-3.9 4.9-.7.8-1.4.9-2.7.3-3.7-1.5-7.1-3.6-10-6.3-2.7-2.6-5-5.5-6.9-8.7-1.2-2.1 1.3-2.4 3.6-6.8.3-.7.3-1.6-.1-2.3-.3-.7-2.8-6.8-3.9-9.3-1-2.4-2-2.1-2.8-2.1-2.4-.2-4.1-.2-5.7 1.5-6.7 7.4-5.1 15.1.7 23.3 11.4 15 17.3 17.7 28.4 21.5 2.5.7 5.2.9 7.8.5 2.4-.4 7.4-3.1 8.4-6 .8-1.9 1.1-4 .8-6-.1-.6-1-.9-2.2-1.4z"/><path id="Caminho_97" class="st0" d="M110.8 39.7c-32.3-31-85.6-8.5-85.7 35.4 0 8.8 2.3 17.4 6.7 24.9l-7.2 25.8 26.6-6.9c33.1 17.9 74-5.9 74-43.8.1-13.2-5.2-25.9-14.7-35.2l.3-.2zm6.1 35.3c0 32-35.2 51.9-62.8 35.6l-1.5-.9-15.7 4.1L41 98.5l-1-1.6c-17.2-27.4 2.7-63.3 35.4-63.3 22.9-.1 41.5 18.5 41.5 41.4z"/></g></svg>