<?xml version="1.0" encoding="utf-8"?>
<!-- Generator: Adobe Illustrator 25.2.1, SVG Export Plug-In . SVG Version: 6.00 Build 0)  -->
<svg version="1.1" id="Camada_1" xmlns="http://www.w3.org/2000/svg" xmlns:xlink="http://www.w3.org/1999/xlink" x="0px" y="0px"
	 viewBox="0 0 150 150" style="enable-background:new 0 0 150 150;" xml:space="preserve">
<style type="text/css">
	.st0{fill:#EFEFF9;}
</style>
<g id="whatsapp">
	<path id="Caminho_96" class="st0" d="M98,85.6l-0.1,0.3c-9.1-4.6-10.2-5.2-11.4-3.4c-0.8,1.2-3.2,4-3.9,4.9
		c-0.7,0.8-1.4,0.9-2.7,0.3c-3.7-1.5-7.1-3.6-10-6.3c-2.7-2.6-5-5.5-6.9-8.7c-1.2-2.1,1.3-2.4,3.6-6.8c0.3-0.7,0.3-1.6-0.1-2.3
		c-0.3-0.7-2.8-6.8-3.9-9.3c-1-2.4-2-2.1-2.8-2.1c-2.4-0.2-4.1-0.2-5.7,1.5C47.4,61.1,49,68.8,54.8,77c11.4,15,17.3,17.7,28.4,21.5
		c2.5,0.7,5.2,0.9,7.8,0.5c2.4-0.4,7.4-3.1,8.4-6c0.8-1.9,1.1-4,0.8-6C100.1,86.4,99.2,86.1,98,85.6L98,85.6z"/>
	<path id="Caminho_97" class="st0" d="M110.8,39.7c-32.3-31-85.6-8.5-85.7,35.4c0,8.8,2.3,17.4,6.7,24.9l-7.2,25.8l26.6-6.9
		c33.1,17.9,74-5.9,74-43.8c0.1-13.2-5.2-25.9-14.7-35.2L110.8,39.7z M116.9,75c0,32-35.2,51.9-62.8,35.6l-1.5-0.9l-15.7,4.1
		L41,98.5l-1-1.6c-17.2-27.4,2.7-63.3,35.4-63.3C98.3,33.5,116.9,52.1,116.9,75C116.9,75,116.9,75,116.9,75L116.9,75L116.9,75z"/>
</g>
</svg>
