<?xml version="1.0" encoding="utf-8"?>
<!-- Generator: Adobe Illustrator 25.2.1, SVG Export Plug-In . SVG Version: 6.00 Build 0)  -->
<svg version="1.1" id="Camada_1" xmlns="http://www.w3.org/2000/svg" xmlns:xlink="http://www.w3.org/1999/xlink" x="0px" y="0px"
	 viewBox="0 0 150 150" style="enable-background:new 0 0 150 150;" xml:space="preserve">
<style type="text/css">
	.st0{fill:#EFEFF9;}
</style>
<path id="Prancheta_14" class="st0" d="M144.5,41.1c-1.7-6.2-6.6-11-12.8-12.7C120.4,25.4,75,25.4,75,25.4s-45.4,0-56.8,3
	c-6.2,1.7-11,6.6-12.8,12.8c-3,11.2-3,34.6-3,34.6s0,23.4,3,34.6c1.7,6.2,6.6,11,12.8,12.7c11.5,3.1,56.8,3.1,56.8,3.1
	s45.4,0,56.8-3c6.2-1.6,11.1-6.5,12.8-12.7c3-11.2,3-34.6,3-34.6S147.6,52.3,144.5,41.1z M60.5,97.2V54.1l37.8,21.5L60.5,97.2z"/>
</svg>
